# xmcd
#
# Track frame offsets: 
#        150
#        23314
#        47089
#        60063
#        78143
#        105745
#        114915
#        133160
#        153955
#        173317
#        178386
#        203921
#        220063
#        241982
#        259139
#
# Disc length: 3756 seconds
#
# Revision: 0
# Processed by: cddbd v1.4PL0 Copyright (c) Steve Scherf et al.
# Submitted via: ExactAudioCopy v0.90b4
#
DISCID=b50eaa0f
DTITLE=Blackmore's Night - Shadow Of The Moon
DYEAR=1997
DGENRE=Christian Gangsta Rap
TTITLE0=Shadow Of The Moon
TTITLE1=The Clock Ticks On
TTITLE2=Be Mine Tonight
TTITLE3=Play Minstrel Play
TTITLE4=Ocean Gypsy
TTITLE5=Minstrel Hall
TTITLE6=Magical World
TTITLE7=Writing On The Wall
TTITLE8=Renaissance Faire
TTITLE9=Memmingen
TTITLE10=No Second Chance
TTITLE11=Mond Tanz
TTITLE12=Spirit Of The Sea
TTITLE13=Greensleeves
TTITLE14=Wish You Were Here
EXTD=
EXTT0=
EXTT1=
EXTT2=
EXTT3=
EXTT4=
EXTT5=
EXTT6=
EXTT7=
EXTT8=
EXTT9=
EXTT10=
EXTT11=
EXTT12=
EXTT13=
EXTT14=
PLAYORDER=
